C:\Users\movea\Dropbox\PhDWork\ExperimentalData\subject9\100\P9S100W06_filtered35.mot
nRows=18
nColumns=28

name C:\Users\movea\Dropbox\PhDWork\ExperimentalData\subject9\100\P9S100W06_filtered35.mot
datacolumns 28
datarows 18
range 1.3850000000 1.4020000000
endheader
time	ground_force_1_vx	ground_force_1_vy	ground_force_1_vz	ground_force_1_px	ground_force_1_py	ground_force_1_pz	ground_moment_1_mx	ground_moment_1_my	ground_moment_1_mz	ground_force_2_vx	ground_force_2_vy	ground_force_2_vz	ground_force_2_px	ground_force_2_py	ground_force_2_pz	ground_moment_2_mx	ground_moment_2_my	ground_moment_2_mz	ground_force_3_vx	ground_force_3_vy	ground_force_3_vz	ground_force_3_px	ground_force_3_py	ground_force_3_pz	ground_moment_3_mx	ground_moment_3_my	ground_moment_3_mz
        1.3850000000	      -16.5606259507	      360.0697187410	       64.8269768644	        0.1988394961	        0.0000558755	       -0.3004071324	      -79.1586725171	        0.6243085260	      -24.7596421105	      -48.3261297478	      845.1808435165	     -191.7958278730	        0.2029003516	       -0.0000795827	        0.4543649445	      -29.3950201434	       16.3954477953	       83.4879081380	        0.0000000000	        0.0000000000	        0.0000000000	        0.2076431971	        0.0000770316	        1.3583900146	       -0.0000000000	        0.0000000000	        0.0000000000	
        1.3860000000	      -16.5681095664	      367.5659017759	       65.8950052134	        0.1988394961	        0.0000558755	       -0.3004071324	      -80.5246074709	        0.8077902508	      -25.2729474629	      -47.9058818038	      839.8034107345	     -192.3998333411	        0.2029003516	       -0.0000795827	        0.4543649445	      -28.9553685463	       16.4748317218	       82.9351676856	        0.0000000000	        0.0000000000	        0.0000000000	        0.2076431971	        0.0000770316	        1.3583900146	        0.0000000000	       -0.0000000000	       -0.0000000000	
        1.3870000000	      -16.6402177111	      375.5394983343	       66.3308609735	        0.1988394961	        0.0000558755	       -0.3004071324	      -81.9901904378	        0.9362794281	      -25.8179313802	      -47.4688807804	      834.3064874795	     -192.9651132873	        0.2029003516	       -0.0000795827	        0.4543649445	      -28.5089750356	       16.5558340403	       82.3670558652	        0.0000000000	        0.0000000000	        0.0000000000	        0.2076431971	        0.0000770316	        1.3583900146	        0.0000000000	       -0.0000000000	       -0.0000000000	
        1.3880000000	      -16.7652716409	      383.9102755351	       66.2479921700	        0.1988394961	        0.0000558755	       -0.3004071324	      -83.5373842614	        1.0193827503	      -26.3898719807	      -47.0153996915	      828.6868554919	     -193.4913404546	        0.2029003516	       -0.0000795827	        0.4543649445	      -28.0571429517	       16.6386912255	       81.7837624266	       -0.0000000000	        0.0000000000	        0.0000000000	        0.2076431971	        0.0000770316	        1.3583900146	        0.0000000000	       -0.0000000000	       -0.0000000000	
        1.3890000000	      -16.9248828489	      392.5886484551	       65.7750603290	        0.1988394961	        0.0000558755	       -0.3004071324	      -85.1459467283	        1.0688751622	      -26.9840993437	      -46.5459238332	      822.9372169785	     -193.9796061160	        0.2029003516	       -0.0000795827	        0.4543649445	      -27.6014548581	       16.7234600356	       81.1854623719	       -0.0000000000	        0.0000000000	        0.0000000000	        0.2076431971	        0.0000770316	        1.3583900146	        0.0000000000	       -0.0000000000	       -0.0000000000	
        1.3900000000	      -17.0964763750	      401.4810616179	       65.0481865880	        0.1988394961	        0.0000558755	       -0.3004071324	      -86.7944968792	        1.0977673844	      -27.5958783478	      -46.0610809644	      817.0469751943	     -194.4319266588	        0.2029003516	       -0.0000795827	        0.4543649445	      -27.1434191546	       16.8099105383	       80.5722024932	       -0.0000000000	        0.0000000000	        0.0000000000	        0.2076431971	        0.0000770316	        1.3583900146	        0.0000000000	       -0.0000000000	       -0.0000000000	
        1.3910000000	      -17.2564634096	      410.4938562930	       64.2035442266	        0.1988394961	        0.0000558755	       -0.3004071324	      -88.4614996885	        1.1191272232	      -28.2201611557	      -45.5608263928	      811.0051880983	     -194.8497253289	        0.2029003516	       -0.0000795827	        0.4543649445	      -26.6841072157	       16.8975502883	       79.9439387971	       -0.0000000000	        0.0000000000	        0.0000000000	        0.2076431971	        0.0000770316	        1.3583900146	        0.0000000000	       -0.0000000000	       -0.0000000000	
        1.3920000000	      -17.3829060226	      419.5362829297	       63.3707442781	        0.1988394961	        0.0000558755	       -0.3004071324	      -90.1260688846	        1.1454030877	      -28.8514543676	      -45.0440397461	      804.8031832545	     -195.2329371559	        0.2029003516	       -0.0000795827	        0.4543649445	      -26.2237419727	       16.9856328542	       79.3005838411	       -0.0000000000	        0.0000000000	        0.0000000000	        0.2076431971	        0.0000770316	        1.3583900146	        0.0000000000	       -0.0000000000	       -0.0000000000	
        1.3930000000	      -17.4565229824	      428.5240884434	       62.6677791253	        0.1988394961	        0.0000558755	       -0.3004071324	      -91.7686631474	        1.1879945045	      -29.4839827900	      -44.5091757186	      798.4358637547	     -195.5800473269	        0.2029003516	       -0.0000795827	        0.4543649445	      -25.7615527361	       17.0731462419	       78.6418996762	       -0.0000000000	        0.0000000000	        0.0000000000	        0.2076431971	        0.0000770316	        1.3583900146	        0.0000000000	       -0.0000000000	       -0.0000000000	
        1.3940000000	      -17.4608585374	      437.3820190332	       62.1968890522	        0.1988394961	        0.0000558755	       -0.3004071324	      -93.3717781007	        1.2564408180	      -30.1121430564	      -43.9550458715	      791.9038027512	     -195.8887812972	        0.2029003516	       -0.0000795827	        0.4543649445	      -25.2960854143	       17.1589334803	       77.9675446326	       -0.0000000000	        0.0000000000	        0.0000000000	        0.2076431971	        0.0000770316	        1.3583900146	        0.0000000000	       -0.0000000000	       -0.0000000000	
        1.3950000000	      -17.3823968034	      446.0446953418	       62.0398819937	        0.1988394961	        0.0000558755	       -0.3004071324	      -94.9206168852	        1.3580520542	      -30.7309758355	      -43.3811231958	      785.2143578113	     -196.1567522977	        0.2029003516	       -0.0000795827	        0.4543649445	      -24.8258437447	       17.2418837954	       77.2773256845	       -0.0000000000	        0.0000000000	        0.0000000000	        0.2076431971	        0.0000770316	        1.3583900146	        0.0000000000	       -0.0000000000	       -0.0000000000	
        1.3960000000	      -17.2107064208	      454.4575721790	       62.2544146195	        0.1988394961	        0.0000558755	       -0.3004071324	      -96.4036140146	        1.4976658199	      -31.3363718854	      -42.7876567842	      778.3796206946	     -196.3813396818	        0.2029003516	       -0.0000795827	        0.4543649445	      -24.3499986557	       17.3210998040	       76.5712987255	       -0.0000000000	        0.0000000000	        0.0000000000	        0.2076431971	        0.0000770316	        1.3583900146	        0.0000000000	       -0.0000000000	       -0.0000000000	
        1.3970000000	      -16.9391282577	      462.5787422309	       62.8727646365	        0.1988394961	        0.0000558755	       -0.3004071324	      -97.8125629034	        1.6774821028	      -31.9251305784	      -42.1756381126	      771.4137276625	     -196.5593888340	        0.2029003516	       -0.0000795827	        0.4543649445	      -23.8685820286	       17.3960139157	       75.8497528655	       -0.0000000000	        0.0000000000	        0.0000000000	        0.2076431971	        0.0000770316	        1.3583900146	        0.0000000000	       -0.0000000000	       -0.0000000000	
        1.3980000000	      -16.5653660018	      470.3816389135	       63.9025036572	        0.1988394961	        0.0000558755	       -0.3004071324	      -99.1423986106	        1.8974661201	      -32.4949961421	      -41.5463625435	      764.3292121654	     -196.6870695575	        0.2029003516	       -0.0000795827	        0.4543649445	      -23.3820890708	       17.4663108877	       75.1130908957	       -0.0000000000	        0.0000000000	        0.0000000000	        0.2076431971	        0.0000770316	        1.3583900146	        0.0000000000	       -0.0000000000	       -0.0000000000	
        1.3990000000	      -16.0910585640	      477.8563164884	       65.3292626275	        0.1988394961	        0.0000558755	       -0.3004071324	     -100.3911766086	        2.1555318368	      -33.0446618848	      -40.9008377139	      757.1323283453	     -196.7598783339	        0.2029003516	       -0.0000795827	        0.4543649445	      -22.8910329661	       17.5316524782	       74.3615180068	       -0.0000000000	        0.0000000000	       -0.0000000000	        0.2076431971	        0.0000770316	        1.3583900146	        0.0000000000	       -0.0000000000	       -0.0000000000	
        1.4000000000	      -15.5205084816	      485.0070277870	       67.1211220675	        0.1988394961	        0.0000558755	       -0.3004071324	     -101.5603888066	        2.4478553475	      -33.5737929642	      -40.2393307906	      749.8225380581	     -196.7731274213	        0.2029003516	       -0.0000795827	        0.4543649445	      -22.3957354617	       17.5914690404	       73.5949728699	       -0.0000000000	        0.0000000000	       -0.0000000000	        0.2076431971	        0.0000770316	        1.3583900146	        0.0000000000	       -0.0000000000	       -0.0000000000	
        1.4010000000	      -14.8590795301	      491.8493601283	       69.2331907218	        0.1988394961	        0.0000558755	       -0.3004071324	     -102.6549903623	        2.7696322656	      -34.0829898949	      -39.5611775404	      742.3967671201	     -196.7226253985	        0.2029003516	       -0.0000795827	        0.4543649445	      -21.8963027638	       17.6449822414	       72.8134274456	       -0.0000000000	        0.0000000000	       -0.0000000000	        0.2076431971	        0.0000770316	        1.3583900146	        0.0000000000	       -0.0000000000	       -0.0000000000	
        1.4020000000	      -14.1122669178	      498.4108762289	       71.6119386490	        0.1988394961	        0.0000558755	       -0.3004071324	     -103.6826029642	        3.1154455618	      -34.5737227992	      -38.8651927020	      734.8521441458	     -196.6050579160	        0.2029003516	       -0.0000795827	        0.4543649445	      -21.3926601852	       17.6913812894	       72.0169797258	       -0.0000000000	        0.0000000000	       -0.0000000000	        0.2076431971	        0.0000770316	        1.3583900146	       -0.0000000000	        0.0000000000	        0.0000000000	
